<?xml version="1.0" encoding="utf-8"?>
<svg version="1.1" id="_x31_" x="0px" y="0px" viewBox="0 0 512 512" style="enable-background:new 0 0 512 512;" xmlns="http://www.w3.org/2000/svg">
  <ellipse style="fill: rgb(247, 247, 247); stroke: rgb(247, 247, 247);" cx="254.835" cy="258.264" rx="252.914" ry="252.914"/>
  <g>
    <rect style="fill: rgb(60, 63, 68); visibility: hidden;" width="512" height="512"/>
    <polygon style="opacity: 0.1; fill: rgb(4, 0, 0); visibility: hidden;" points="512,260.659 512,512 266.906,512 113.101,358.195 213.606,198.451 &#10;&#9;&#9;361.267,109.926 &#9;"/>
    <g>
      <path style="fill: rgb(189, 200, 193);" d="M433.159,278.613c0.985-7.388,1.423-14.94,1.423-22.6c0-7.662-0.438-15.267-1.423-22.655 c-22.491-3.502-40.494-7.497-42.136-13.571c-1.696-6.293,11.821-18.934,29.55-33.271c-5.855-13.79-13.352-26.704-22.272-38.47 c-21.232,8.208-38.908,13.735-43.505,9.194c-4.542-4.542,0.986-22.271,9.194-43.45c-11.711-8.974-24.679-16.471-38.47-22.326 c-14.337,17.676-26.978,31.246-33.271,29.55c-6.074-1.587-10.124-19.645-13.571-42.136c-7.387-0.931-14.993-1.423-22.655-1.423 c-7.661,0-15.212,0.493-22.6,1.423c-3.448,22.491-7.497,40.548-13.572,42.136c-6.292,1.696-18.934-11.874-33.216-29.55 c-13.844,5.8-26.759,13.352-38.524,22.326c8.154,21.178,13.681,38.908,9.139,43.45c-4.542,4.541-22.217-0.985-43.45-9.194 c-8.92,11.765-16.472,24.68-22.272,38.47c17.675,14.337,31.192,26.978,29.551,33.271c-1.642,6.074-19.646,10.069-42.136,13.571 c-0.985,7.388-1.478,14.993-1.478,22.655c0,7.661,0.493,15.213,1.478,22.6c22.491,3.502,40.494,7.497,42.136,13.571 c1.642,6.292-11.93,18.933-29.605,33.271c5.855,13.79,13.352,26.704,22.327,38.47c21.233-8.208,38.907-13.735,43.45-9.194 c4.542,4.542-0.985,22.272-9.139,43.504c11.711,8.974,24.68,16.472,38.469,22.272c14.337-17.676,26.978-31.246,33.271-29.55 c6.074,1.587,10.124,19.645,13.572,42.135c7.387,0.985,14.939,1.478,22.6,1.478c7.662,0,15.268-0.493,22.655-1.478 c3.447-22.49,7.497-40.548,13.571-42.135c6.293-1.696,18.934,11.874,33.271,29.55c13.79-5.8,26.759-13.298,38.47-22.272 c-8.208-21.232-13.735-38.962-9.194-43.504c4.597-4.541,22.273,0.985,43.505,9.194c8.974-11.766,16.471-24.68,22.272-38.47 c-17.675-14.337-31.246-26.978-29.55-33.271C392.664,286.11,410.668,282.115,433.159,278.613z M313.591,263.345 c-0.656,5.363-2.025,10.452-4.049,15.213c-1.915,4.487-4.323,8.701-7.277,12.531c-3.174,4.214-6.95,7.935-11.109,11.164 c-3.83,2.9-8.044,5.308-12.532,7.223c-4.761,2.024-9.905,3.447-15.212,4.104c-2.408,0.328-4.87,0.438-7.388,0.438 c-2.462,0-4.924-0.11-7.332-0.438c-5.363-0.656-10.452-2.08-15.213-4.104c-4.488-1.915-8.701-4.323-12.532-7.223 c-4.214-3.229-7.935-6.95-11.164-11.164c-2.9-3.83-5.362-8.044-7.223-12.531c-2.025-4.761-3.448-9.85-4.104-15.213 c-0.329-2.408-0.437-4.87-0.437-7.332c0-2.517,0.109-4.98,0.437-7.388c0.656-5.308,2.079-10.451,4.104-15.213 c1.915-4.487,4.323-8.646,7.223-12.477c3.229-4.214,6.95-7.989,11.164-11.163c3.831-2.901,8.044-5.363,12.532-7.279 c4.761-2.025,9.849-3.393,15.213-4.049c2.408-0.328,4.87-0.493,7.332-0.493c2.517,0,4.98,0.165,7.388,0.493 c5.308,0.656,10.452,2.079,15.212,4.049c4.487,1.915,8.701,4.378,12.532,7.279c4.159,3.173,7.935,6.949,11.109,11.163 c2.9,3.831,5.362,7.99,7.277,12.477c1.97,4.761,3.393,9.905,4.049,15.213c0.329,2.408,0.493,4.871,0.493,7.388 C314.084,258.475,313.92,260.938,313.591,263.345z"/>
      <path style="fill: rgb(189, 200, 193);" d="M202.56,233.387c1.916-4.487,4.323-8.647,7.223-12.477c3.229-4.214,6.95-7.989,11.164-11.163 c3.83-2.9,8.044-5.363,12.532-7.278c4.761-2.025,9.849-3.393,15.213-4.049c2.407-0.329,4.87-0.493,7.332-0.493V77.429 c-7.661,0-15.212,0.493-22.6,1.422c-3.448,22.491-7.497,40.549-13.572,42.137c-6.292,1.696-18.934-11.875-33.216-29.55 c-13.844,5.8-26.759,13.352-38.524,22.326c8.154,21.177,13.68,38.908,9.139,43.45c-4.542,4.541-22.217-0.985-43.45-9.193 c-8.92,11.765-16.472,24.679-22.272,38.47c17.675,14.337,31.192,26.978,29.55,33.271c-1.642,6.074-19.645,10.069-42.136,13.571 c-0.986,7.387-1.478,14.993-1.478,22.655c0,7.661,0.493,15.213,1.478,22.6c22.491,3.503,40.494,7.497,42.136,13.572 c1.642,6.293-11.929,18.934-29.605,33.271c5.855,13.79,13.352,26.704,22.327,38.469c21.233-8.208,38.907-13.736,43.45-9.193 c4.541,4.542-0.986,22.271-9.139,43.504c11.71,8.975,24.68,16.472,38.47,22.272c14.337-17.676,26.978-31.246,33.271-29.551 c6.074,1.588,10.124,19.645,13.572,42.136c7.387,0.985,14.939,1.478,22.6,1.478V313.993c-2.462,0-4.925-0.11-7.332-0.438 c-5.363-0.656-10.452-2.079-15.213-4.104c-4.488-1.916-8.701-4.323-12.532-7.224c-4.214-3.228-7.935-6.95-11.164-11.163 c-2.9-3.83-5.362-8.044-7.223-12.531c-2.025-4.761-3.447-9.85-4.104-15.213c-0.329-2.408-0.438-4.87-0.438-7.332 c0-2.518,0.11-4.98,0.438-7.388C199.113,243.292,200.535,238.148,202.56,233.387z"/>
      <path style="fill:#FEFFFE;" d="M255.996,168.868c-48.1,0-87.117,39.017-87.117,87.173c0,48.1,39.016,87.117,87.117,87.117 c48.156,0,87.173-39.017,87.173-87.117C343.168,207.885,304.151,168.868,255.996,168.868z M313.564,263.373 c-0.657,5.363-2.025,10.452-4.05,15.213c-1.915,4.487-4.323,8.7-7.278,12.531c-3.174,4.214-6.95,7.935-11.108,11.164 c-3.831,2.9-8.045,5.308-12.532,7.223c-4.761,2.025-9.905,3.447-15.213,4.104c-2.408,0.328-4.87,0.438-7.388,0.438 c-2.462,0-4.924-0.109-7.332-0.438c-5.363-0.657-10.452-2.079-15.212-4.104c-4.488-1.915-8.7-4.323-12.532-7.223 c-4.213-3.229-7.934-6.949-11.163-11.164c-2.901-3.83-5.363-8.043-7.223-12.531c-2.025-4.761-3.448-9.85-4.105-15.213 c-0.328-2.407-0.437-4.87-0.437-7.332c0-2.518,0.109-4.98,0.437-7.388c0.657-5.308,2.08-10.452,4.105-15.212 c1.915-4.488,4.322-8.646,7.223-12.477c3.229-4.214,6.95-7.989,11.163-11.164c3.831-2.9,8.044-5.363,12.532-7.278 c4.76-2.024,9.85-3.393,15.212-4.049c2.408-0.328,4.87-0.493,7.332-0.493c2.518,0,4.98,0.164,7.388,0.493 c5.307,0.657,10.452,2.079,15.213,4.049c4.487,1.915,8.701,4.378,12.532,7.278c4.158,3.174,7.934,6.949,11.108,11.164 c2.9,3.83,5.363,7.989,7.278,12.477c1.97,4.76,3.393,9.905,4.05,15.212c0.328,2.407,0.492,4.87,0.492,7.388 C314.056,258.503,313.892,260.965,313.564,263.373z"/>
    </g>
  </g>
</svg>