<?xml version="1.0" encoding="utf-8"?>
<svg version="1.1" id="_x34_" x="0px" y="0px" viewBox="-63.852 -196.839 686.325 695.313" style="enable-background:new 0 0 512 512;" xmlns="http://www.w3.org/2000/svg">
  <ellipse style="fill: rgb(247, 247, 247); stroke: rgb(247, 247, 247);" cx="280.38" cy="151.116" rx="338.646" ry="344.075"/>
  <g>
    <g>
      <g>
        <path style="fill:#76C6B8;" d="M512,44.491v194.621h-67.306c-3.219,0-6.294,0.499-9.155,1.43 c-12.803,3.934-22.102,15.878-22.102,29.969v59.152H127.048c-2.146,0-8.941-6.723-18.454-17.38 c-0.072-0.072-0.143-0.215-0.215-0.286c-1.716-2.003-3.505-4.077-5.436-6.224c-1.645-1.931-3.362-3.932-5.078-6.007 c-0.072-0.072-0.215-0.215-0.286-0.358c-0.358-0.358-0.716-0.788-1.001-1.215c-1.431-1.717-2.861-3.433-4.363-5.221 c-2.217-2.647-4.506-5.436-6.795-8.298c-1.502-1.86-3.076-3.791-4.649-5.723c-0.858-1.001-1.645-2.001-2.432-3.003 c-1.574-2.003-3.147-4.006-4.792-6.007c-25.892-32.545-54.36-70.382-69.022-91.482c-6.08-8.798-6.008-20.386,0.072-29.111 C33.993,107.505,118.393,0,127.048,0h340.463c3.004,0,5.937,0.286,8.798,0.931c17.452,3.505,31.257,17.309,34.762,34.762 C511.714,38.553,512,41.485,512,44.491z"/>
        <circle style="fill:#5D5D5D;" cx="59.242" cy="164.839" r="17.616"/>
      </g>
      <g>
        <path style="fill:#C8E4E4;" d="M169.849,39.188h279.05c21.215,0,38.488,16.403,38.488,36.567v178.17 c0,0.922-0.038,1.845-0.114,2.767l-38.564,33.8h-278.86c-21.234,0-38.507-16.403-38.507-36.567V75.755 C131.342,55.59,148.615,39.188,169.849,39.188z"/>
        <path style="fill:#FFFFFF;" d="M452.627,57.269H166.111c-8.683,0-15.721,7.039-15.721,15.721v183.697 c0,8.684,7.039,15.721,15.721,15.721h286.517c8.683,0,15.721-7.037,15.721-15.721V72.991 C468.349,64.308,461.31,57.269,452.627,57.269z"/>
      </g>
      <path style="fill:#70ACAC;" d="M444.672,239.111h66.92l-24.319,22.453l-38.564,35.593l-35.25,32.527h-0.209v-59.151 C413.25,253.184,427.323,239.111,444.672,239.111z"/>
      <g style="opacity:0.5;">
        <rect x="180.15" y="93.924" style="fill:#D9D9D9;" width="125.69" height="78.986"/>
        <rect x="321.496" y="93.924" style="fill:#D9D9D9;" width="125.69" height="14.871"/>
        <rect x="321.496" y="123.759" style="fill:#D9D9D9;" width="125.69" height="14.871"/>
        <rect x="321.496" y="152.325" style="fill:#D9D9D9;" width="125.69" height="14.871"/>
        <rect x="180.15" y="191.683" style="fill:#D9D9D9;" width="264.496" height="14.871"/>
        <rect x="180.15" y="220.883" style="fill:#D9D9D9;" width="264.496" height="14.871"/>
      </g>
    </g>
    <path style="opacity:0.2;fill:#FFFFFF;" d="M420.876,0L381.68,39.196l-18.096,18.098l-36.622,36.62l-5.436,5.436l-15.664,15.664 l-57.865,57.865l-47.994,47.993l-14.877,14.878l-31.042,31.041l-12.16,12.159l-32.401,32.403l-0.93,0.929 c-0.072-0.072-0.143-0.215-0.215-0.286c-1.788-1.931-3.576-4.006-5.436-6.224c-1.645-1.931-3.362-3.932-5.078-6.007 c-0.072-0.072-0.215-0.215-0.286-0.358c-0.358-0.358-0.716-0.788-1.001-1.215c-1.431-1.717-2.861-3.433-4.363-5.221 c-2.217-2.647-4.506-5.436-6.795-8.298c-1.574-1.86-3.147-3.791-4.649-5.723c-0.858-1.001-1.645-2.001-2.432-3.003 c-1.574-2.003-3.219-4.006-4.792-6.007c-25.892-32.545-54.36-70.382-69.022-91.482c-6.08-8.798-6.008-20.386,0.072-29.111 C33.993,107.505,118.393,0,127.048,0H420.876z"/>
  </g>
</svg>