<!--?xml version="1.0" encoding="utf-8"?-->
<!-- Generator: Adobe Illustrator 25.2.3, SVG Export Plug-In . SVG Version: 6.00 Build 0)  -->
<svg preserveAspectRatio="none" version="1.1" id="_x33_" xmlns="http://www.w3.org/2000/svg" xmlns:xlink="http://www.w3.org/1999/xlink" x="0px" y="0px" viewBox="0 0 800 434.259" style="width: 594px;" xml:space="preserve">
<style type="text/css">
	.st0{fill:#FFFFFF;}
</style>
<g>
	<path class="st0" d="M760.326,87.388c-35.433-71.264-140.755-76.531-360.326-76.531c-219.57,0-324.891,5.267-360.325,76.531
		C18.169,130.64,20.041,202.242,20.041,202.242s-1.872,71.601,19.634,114.853c28.327,56.971,101.327,71.761,241.644,75.403
		c19.731,27.017,38.642,30.905,38.642,30.905c4.147-4.436,6.821-22.071,7.847-30.091c22.564,0.239,46.593,0.314,72.192,0.314
		c219.572,0,324.892-5.267,360.326-76.531c21.506-43.253,19.634-114.853,19.634-114.853S781.831,130.64,760.326,87.388z"></path>
</g>
</svg>
