<?xml version="1.0" encoding="utf-8"?>
<svg version="1.1" id="_x32_" x="0px" y="0px" viewBox="-255.387 -271.657 1019.28 1015.18" style="width: 256px; height: 256px; opacity: 1;" xmlns="http://www.w3.org/2000/svg">
  <style type="text/css">
	.st0{fill:#4B4B4B;}
</style>
  <ellipse style="fill: rgb(247, 247, 247); stroke: rgb(247, 247, 247);" cx="255.966" cy="236.739" rx="499.797" ry="499.797"/>
  <g>
    <path class="st0" d="M149.193,103.525c15.994,0,28.964-12.97,28.964-28.972V28.964C178.157,12.97,165.187,0,149.193,0 C133.19,0,120.22,12.97,120.22,28.964v45.589C120.22,90.556,133.19,103.525,149.193,103.525z" style="fill: rgb(75, 75, 75);"/>
    <path class="st0" d="M362.815,103.525c15.995,0,28.964-12.97,28.964-28.972V28.964C391.78,12.97,378.81,0,362.815,0 c-16.002,0-28.972,12.97-28.972,28.964v45.589C333.843,90.556,346.813,103.525,362.815,103.525z" style="fill: rgb(75, 75, 75);"/>
    <path class="st0" d="M435.164,41.288h-17.925v33.265c0,30.017-24.414,54.431-54.423,54.431c-30.017,0-54.431-24.414-54.431-54.431 V41.288H203.616v33.265c0,30.017-24.415,54.431-54.423,54.431c-30.016,0-54.432-24.414-54.432-54.431V41.288H76.836 c-38.528,0-69.763,31.234-69.763,69.763v331.186C7.073,480.766,38.309,512,76.836,512h358.328 c38.528,0,69.763-31.234,69.763-69.763V111.051C504.927,72.522,473.692,41.288,435.164,41.288z M450.023,429.989 c0,17.826-14.503,32.328-32.329,32.328H94.306c-17.826,0-32.329-14.502-32.329-32.328V170.877h388.047V429.989z" style="fill: rgb(75, 75, 75);"/>
    <rect x="220.58" y="334.908" class="st0" width="70.806" height="70.798" style="fill: rgb(75, 75, 75);"/>
    <rect x="110.839" y="334.908" class="st0" width="70.808" height="70.798" style="fill: rgb(75, 75, 75);"/>
    <rect x="330.338" y="225.151" class="st0" width="70.824" height="70.807" style="fill: rgb(75, 75, 75);"/>
    <rect x="330.338" y="334.908" class="st0" width="70.824" height="70.798" style="fill: rgb(75, 75, 75);"/>
    <rect x="220.58" y="225.151" class="st0" width="70.806" height="70.807" style="fill: rgb(75, 75, 75);"/>
    <rect x="110.839" y="225.151" class="st0" width="70.808" height="70.807" style="fill: rgb(75, 75, 75);"/>
  </g>
</svg>